Normalized EMG Linear Envelopes
nRows=32
nColumns=17

endheader
time	        VM	        VL	        RF	       GRA	        TA	   ADDLONG	   SEMIMEM	      BFLH	        GM	        GL	       TFL	   GLUTMAX	   GLUTMED	      PIRI	    OBTINT	        QF	
2.3285	  0.000000	  0.000000	  0.314734	  0.507418	  0.125283	  0.165330	  0.050708	  0.055566	  0.401833	  0.180488	  0.291618	  0.023028	  0.154253	  0.092177	  0.046637	  0.036788	
2.329	  0.000000	  0.000000	  0.318259	  0.508320	  0.126637	  0.164522	  0.049611	  0.054033	  0.397535	  0.177177	  0.290617	  0.023368	  0.154584	  0.091800	  0.046636	  0.036842	
2.3295	  0.000000	  0.000000	  0.321789	  0.509181	  0.128032	  0.163753	  0.048547	  0.052541	  0.393221	  0.173895	  0.289646	  0.023714	  0.154912	  0.091415	  0.046629	  0.036891	
2.33	  0.000000	  0.000000	  0.325323	  0.510000	  0.129469	  0.163022	  0.047516	  0.051091	  0.388893	  0.170641	  0.288704	  0.024065	  0.155236	  0.091021	  0.046614	  0.036934	
2.3305	  0.000000	  0.000000	  0.328861	  0.510778	  0.130947	  0.162330	  0.046517	  0.049681	  0.384550	  0.167415	  0.287789	  0.024421	  0.155557	  0.090619	  0.046593	  0.036972	
2.331	  0.000000	  0.000000	  0.332403	  0.511516	  0.132467	  0.161676	  0.045551	  0.048312	  0.380194	  0.164219	  0.286900	  0.024782	  0.155872	  0.090208	  0.046565	  0.037005	
2.3315	  0.000000	  0.000000	  0.335947	  0.512214	  0.134030	  0.161059	  0.044616	  0.046983	  0.375826	  0.161054	  0.286036	  0.025147	  0.156181	  0.089790	  0.046529	  0.037032	
2.332	  0.000000	  0.000000	  0.339494	  0.512874	  0.135635	  0.160478	  0.043713	  0.045694	  0.371446	  0.157918	  0.285193	  0.025516	  0.156483	  0.089364	  0.046485	  0.037053	
2.3325	  0.000000	  0.000000	  0.343043	  0.513495	  0.137283	  0.159935	  0.042841	  0.044444	  0.367056	  0.154814	  0.284372	  0.025890	  0.156777	  0.088930	  0.046434	  0.037069	
2.333	  0.000000	  0.000000	  0.346593	  0.514080	  0.138975	  0.159427	  0.042000	  0.043233	  0.362656	  0.151742	  0.283570	  0.026267	  0.157062	  0.088489	  0.046374	  0.037080	
2.3335	  0.000000	  0.000000	  0.350144	  0.514628	  0.140709	  0.158955	  0.041189	  0.042060	  0.358247	  0.148701	  0.282785	  0.026647	  0.157337	  0.088040	  0.046306	  0.037084	
2.334	  0.000000	  0.000000	  0.353695	  0.515141	  0.142487	  0.158517	  0.040409	  0.040924	  0.353831	  0.145693	  0.282015	  0.027031	  0.157601	  0.087584	  0.046230	  0.037084	
2.3345	  0.000000	  0.000000	  0.357247	  0.515619	  0.144309	  0.158115	  0.039658	  0.039827	  0.349408	  0.142718	  0.281259	  0.027417	  0.157853	  0.087120	  0.046145	  0.037078	
2.335	  0.000000	  0.000000	  0.360797	  0.516065	  0.146175	  0.157746	  0.038937	  0.038766	  0.344980	  0.139776	  0.280514	  0.027806	  0.158092	  0.086650	  0.046051	  0.037066	
2.3355	  0.000000	  0.000000	  0.364346	  0.516478	  0.148084	  0.157412	  0.038244	  0.037741	  0.340546	  0.136869	  0.279779	  0.028197	  0.158317	  0.086173	  0.045947	  0.037049	
2.336	  0.000000	  0.000000	  0.367894	  0.516860	  0.150038	  0.157110	  0.037580	  0.036753	  0.336109	  0.133995	  0.279051	  0.028590	  0.158529	  0.085689	  0.045835	  0.037027	
2.3365	  0.000000	  0.000000	  0.371439	  0.517213	  0.152036	  0.156842	  0.036945	  0.035800	  0.331668	  0.131157	  0.278329	  0.028985	  0.158726	  0.085198	  0.045712	  0.036999	
2.337	  0.000000	  0.000000	  0.374981	  0.517536	  0.154078	  0.156607	  0.036337	  0.034882	  0.327225	  0.128354	  0.277610	  0.029382	  0.158907	  0.084701	  0.045580	  0.036965	
2.3375	  0.000000	  0.000000	  0.378519	  0.517831	  0.156164	  0.156404	  0.035757	  0.033999	  0.322781	  0.125587	  0.276892	  0.029780	  0.159073	  0.084197	  0.045439	  0.036927	
2.338	  0.000000	  0.000000	  0.382053	  0.518099	  0.158295	  0.156233	  0.035204	  0.033149	  0.318336	  0.122856	  0.276173	  0.030180	  0.159223	  0.083686	  0.045288	  0.036883	
2.3385	  0.000000	  0.000000	  0.385582	  0.518341	  0.160470	  0.156094	  0.034677	  0.032333	  0.313894	  0.120162	  0.275450	  0.030580	  0.159357	  0.083170	  0.045127	  0.036834	
2.339	  0.000000	  0.000000	  0.389105	  0.518559	  0.162689	  0.155986	  0.034177	  0.031550	  0.309454	  0.117503	  0.274722	  0.030982	  0.159473	  0.082647	  0.044956	  0.036779	
2.3395	  0.000000	  0.000000	  0.392623	  0.518754	  0.164952	  0.155909	  0.033703	  0.030799	  0.305018	  0.114882	  0.273987	  0.031384	  0.159572	  0.082118	  0.044776	  0.036720	
2.34	  0.000000	  0.000000	  0.396133	  0.518927	  0.167259	  0.155862	  0.033254	  0.030080	  0.300587	  0.112298	  0.273243	  0.031786	  0.159654	  0.081582	  0.044587	  0.036656	
2.3405	  0.000000	  0.000000	  0.399637	  0.519080	  0.169610	  0.155847	  0.032830	  0.029393	  0.296163	  0.109751	  0.272488	  0.032189	  0.159717	  0.081041	  0.044387	  0.036587	
2.341	  0.000000	  0.000000	  0.403132	  0.519214	  0.172004	  0.155862	  0.032432	  0.028737	  0.291748	  0.107242	  0.271722	  0.032592	  0.159762	  0.080493	  0.044179	  0.036513	
2.3415	  0.000000	  0.000000	  0.406619	  0.519331	  0.174440	  0.155906	  0.032057	  0.028111	  0.287342	  0.104771	  0.270943	  0.032995	  0.159788	  0.079940	  0.043961	  0.036434	
2.342	  0.000000	  0.000000	  0.410096	  0.519432	  0.176920	  0.155981	  0.031707	  0.027514	  0.282947	  0.102337	  0.270152	  0.033398	  0.159794	  0.079380	  0.043735	  0.036352	
2.3425	  0.000000	  0.000000	  0.413564	  0.519519	  0.179441	  0.156085	  0.031379	  0.026947	  0.278563	  0.099941	  0.269348	  0.033801	  0.159782	  0.078815	  0.043500	  0.036264	
2.343	  0.000000	  0.000000	  0.417020	  0.519591	  0.182005	  0.156218	  0.031076	  0.026409	  0.274193	  0.097583	  0.268532	  0.034204	  0.159750	  0.078244	  0.043256	  0.036173	
2.3435	  0.000000	  0.000000	  0.420465	  0.519651	  0.184610	  0.156380	  0.030794	  0.025899	  0.269837	  0.095263	  0.267705	  0.034607	  0.159699	  0.077667	  0.043004	  0.036077	
2.344	  0.000000	  0.000000	  0.423896	  0.519698	  0.187255	  0.156571	  0.030535	  0.025417	  0.265497	  0.092982	  0.266868	  0.035009	  0.159628	  0.077085	  0.042743	  0.035977	
